<svg width="74" height="72" viewBox="0 0 74 72" fill="none" xmlns="http://www.w3.org/2000/svg">
<path d="M63.17 13.33H62.96C62.7275 13.3352 62.5004 13.2591 62.3179 13.1149C62.1353 12.9707 62.0088 12.7674 61.96 12.54L61.59 10.87C59.9471 12.4582 58.4634 14.2032 57.16 16.08L58.48 18.64C58.602 18.876 58.6252 19.1509 58.5446 19.4041C58.464 19.6572 58.2861 19.868 58.05 19.99C57.814 20.112 57.5391 20.1352 57.2859 20.0546C57.0328 19.974 56.822 19.796 56.7 19.56L55.91 18.03C54.7357 20.0015 53.7609 22.0851 53 24.25L55 26.37C55.0886 26.4672 55.1573 26.5809 55.202 26.7046C55.2467 26.8283 55.2666 26.9596 55.2606 27.091C55.2545 27.2224 55.2227 27.3513 55.1668 27.4704C55.1109 27.5894 55.0322 27.6964 54.935 27.785C54.8378 27.8736 54.7241 27.9423 54.6004 27.987C54.4767 28.0317 54.3454 28.0516 54.214 28.0456C54.0826 28.0395 53.9537 28.0077 53.8346 27.9518C53.7156 27.8959 53.6086 27.8172 53.52 27.72L52.36 26.45C51.7425 28.6525 51.3406 30.9097 51.16 33.19L53.57 34.73C53.7778 34.8797 53.9202 35.1033 53.968 35.3549C54.0157 35.6065 53.9651 35.8668 53.8267 36.0821C53.6882 36.2975 53.4724 36.4516 53.2237 36.5126C52.975 36.5736 52.7124 36.5369 52.49 36.41L51 35.49C50.9625 37.7762 51.1501 40.0605 51.56 42.31L54.3 43.18C54.4254 43.22 54.5417 43.2844 54.6422 43.3694C54.7428 43.4544 54.8256 43.5584 54.886 43.6754C54.9463 43.7924 54.983 43.9201 54.994 44.0513C55.005 44.1825 54.9901 44.3146 54.95 44.44C54.91 44.5654 54.8456 44.6817 54.7606 44.7822C54.6756 44.8828 54.5716 44.9656 54.4546 45.026C54.3376 45.0863 54.2099 45.123 54.0787 45.134C53.9475 45.145 53.8154 45.13 53.69 45.09L52.06 44.57C52.627 46.785 53.4108 48.9387 54.4 51L57.25 51.13C57.5152 51.13 57.7696 51.2353 57.9571 51.4229C58.1447 51.6104 58.25 51.8648 58.25 52.13C58.25 52.3952 58.1447 52.6496 57.9571 52.8371C57.7696 53.0246 57.5152 53.13 57.25 53.13L55.56 53.05C56.6784 55.0423 57.9879 56.9212 59.47 58.66L62.25 58.05C62.5152 57.993 62.7922 58.0436 63.0201 58.1909C63.2479 58.3381 63.408 58.5698 63.465 58.835C63.522 59.1002 63.4714 59.3772 63.3241 59.6051C63.1769 59.8329 62.9452 59.993 62.68 60.05L61.03 60.41C61.46 60.85 61.9 61.28 62.35 61.69C68.9272 55.2204 72.7695 46.4727 73.084 37.2523C73.3985 28.0319 70.1611 19.0427 64.04 12.14C64.0672 12.2759 64.0658 12.416 64.036 12.5514C64.0062 12.6867 63.9485 12.8144 63.8667 12.9263C63.7849 13.0382 63.6807 13.1319 63.5608 13.2014C63.4408 13.2709 63.3078 13.3147 63.17 13.33Z" fill="white"/>
<path d="M11.76 61.66C12.21 61.24 12.65 60.82 13.08 60.38L11.43 60C11.2987 59.9718 11.1742 59.9179 11.0637 59.8416C10.9532 59.7653 10.8588 59.6679 10.7859 59.5551C10.713 59.4423 10.663 59.3162 10.6388 59.1841C10.6147 59.0519 10.6168 58.9163 10.645 58.785C10.6732 58.6537 10.7271 58.5292 10.8034 58.4187C10.8797 58.3082 10.9771 58.2138 11.0899 58.1409C11.2027 58.068 11.3288 58.018 11.461 57.9938C11.5931 57.9697 11.7287 57.9718 11.86 58L14.64 58.61C16.1221 56.8712 17.4316 54.9923 18.55 53L16.86 53.08C16.5948 53.0919 16.3357 52.998 16.1397 52.8189C15.9437 52.6398 15.8269 52.3902 15.815 52.125C15.8031 51.8598 15.897 51.6007 16.0761 51.4047C16.2552 51.2087 16.5048 51.0919 16.77 51.08L19.6 51C20.5864 48.9351 21.3668 46.778 21.93 44.56L20.3 45.08C20.0467 45.1609 19.7717 45.1379 19.5354 45.016C19.2991 44.8941 19.1209 44.6833 19.04 44.43C18.9591 44.1767 18.9822 43.9017 19.104 43.6654C19.2259 43.4291 19.4367 43.2509 19.69 43.17L22.43 42.3C22.8426 40.0542 23.0336 37.7732 23 35.49L21.56 36.41C21.4498 36.4894 21.3247 36.5455 21.1921 36.5749C21.0596 36.6043 20.9224 36.6064 20.789 36.5811C20.6556 36.5557 20.5288 36.5035 20.4162 36.4276C20.3037 36.3517 20.2077 36.2536 20.1343 36.1394C20.0609 36.0252 20.0115 35.8972 19.9891 35.7633C19.9668 35.6293 19.9719 35.4923 20.0043 35.3604C20.0366 35.2285 20.0955 35.1046 20.1773 34.9962C20.2591 34.8879 20.3621 34.7973 20.48 34.73L22.89 33.19C22.7094 30.9098 22.3075 28.6525 21.69 26.45L20.53 27.72C20.4414 27.8205 20.3338 27.9025 20.2135 27.9614C20.0931 28.0203 19.9624 28.0549 19.8286 28.0632C19.5586 28.0801 19.2929 27.989 19.09 27.81C18.8871 27.631 18.7636 27.3787 18.7468 27.1086C18.7299 26.8386 18.821 26.5729 19 26.37L21 24.25C20.2341 22.0951 19.2559 20.0215 18.08 18.06L17.29 19.59C17.168 19.826 16.9572 20.004 16.7041 20.0846C16.4509 20.1652 16.176 20.142 15.94 20.02C15.704 19.898 15.526 19.6872 15.4454 19.4341C15.3648 19.1809 15.388 18.906 15.51 18.67L16.83 16.11C15.5266 14.2332 14.0429 12.4882 12.4 10.9L12 12.57C11.9512 12.7974 11.8247 13.0007 11.6421 13.1449C11.4596 13.2891 11.2326 13.3652 11 13.36H10.79C10.5316 13.3026 10.3066 13.1451 10.1641 12.9221C10.0216 12.699 9.97342 12.4285 10.03 12.17C3.90894 19.0727 0.67155 28.0619 0.986029 37.2823C1.30051 46.5027 5.14286 55.2504 11.72 61.72L11.76 61.66Z" fill="white"/>
<path d="M59.17 63.54C59.1274 63.773 59.0035 63.9832 58.8204 64.1334C58.6373 64.2836 58.4068 64.3639 58.17 64.36H57.99C57.7305 64.3114 57.5008 64.1621 57.351 63.9448C57.2011 63.7275 57.1433 63.4598 57.19 63.2L57.78 59.93C56.2387 58.0888 54.879 56.1029 53.72 54L53 55.66C52.9458 55.7813 52.8679 55.8906 52.7709 55.9815C52.674 56.0724 52.5599 56.143 52.4353 56.1893C52.3107 56.2356 52.1782 56.2566 52.0454 56.2511C51.9126 56.2455 51.7823 56.2136 51.662 56.1571C51.5417 56.1006 51.4339 56.0207 51.3448 55.9221C51.2557 55.8234 51.1872 55.708 51.1433 55.5826C51.0994 55.4572 51.0808 55.3243 51.0889 55.1916C51.0969 55.0589 51.1313 54.9292 51.19 54.81L52.6 51.81C51.574 49.6541 50.7601 47.4035 50.17 45.09L49 46.44C48.8289 46.6429 48.5843 46.7695 48.3199 46.792C48.0554 46.8145 47.7929 46.7311 47.59 46.56C47.3871 46.3889 47.2605 46.1443 47.238 45.8799C47.2155 45.6154 47.2989 45.3529 47.47 45.15L49.59 42.64C49.1618 40.2848 48.9642 37.8935 49 35.5L47.55 36.5C47.3323 36.6351 47.071 36.6815 46.8201 36.6296C46.5692 36.5777 46.3478 36.4315 46.2016 36.2211C46.0553 36.0107 45.9954 35.7522 46.0342 35.499C46.073 35.2457 46.2075 35.017 46.41 34.86L49.13 33C49.3229 30.6322 49.7415 28.2882 50.38 26L48.73 26.59C48.4857 26.6596 48.2241 26.6337 47.9982 26.5174C47.7723 26.4012 47.5992 26.2033 47.5139 25.964C47.4286 25.7247 47.4376 25.4619 47.539 25.229C47.6405 24.9961 47.8267 24.8106 48.06 24.71L51.15 23.6C51.9359 21.3472 52.9407 19.1768 54.15 17.12L52.41 17.26C52.2787 17.2705 52.1466 17.255 52.0212 17.2145C51.8959 17.1739 51.7797 17.1091 51.6795 17.0237C51.5792 16.9382 51.4967 16.8339 51.4367 16.7166C51.3768 16.5993 51.3405 16.4713 51.33 16.34C51.3195 16.2087 51.335 16.0766 51.3755 15.9512C51.4161 15.8259 51.4809 15.7097 51.5663 15.6095C51.6518 15.5092 51.7561 15.4267 51.8734 15.3667C51.9907 15.3068 52.1187 15.2705 52.25 15.26L55.55 15C56.9163 13.031 58.4702 11.1991 60.19 9.53L58.46 9.21C58.2005 9.16138 57.9708 9.01214 57.821 8.79484C57.6711 8.57754 57.6133 8.30979 57.66 8.05C57.7068 7.82072 57.8324 7.6151 58.0151 7.46893C58.1979 7.32275 58.4261 7.24528 58.66 7.25C52.4258 2.5693 44.8407 0.0387421 37.045 0.0387421C29.2493 0.0387421 21.6642 2.5693 15.43 7.25C15.6639 7.24528 15.8921 7.32275 16.0749 7.46893C16.2576 7.6151 16.3832 7.82072 16.43 8.05C16.4768 8.30979 16.4189 8.57754 16.269 8.79484C16.1192 9.01214 15.8895 9.16138 15.63 9.21L13.9 9.53C15.5885 11.2033 17.1122 13.035 18.45 15L21.71 15.27C21.8415 15.2801 21.9697 15.3161 22.0872 15.3759C22.2047 15.4357 22.3092 15.5182 22.3947 15.6186C22.4802 15.719 22.545 15.8353 22.5854 15.9608C22.6258 16.0863 22.6409 16.2186 22.63 16.35C22.6071 16.6137 22.4806 16.8577 22.2781 17.0282C22.0756 17.1988 21.8138 17.2822 21.55 17.26L19.81 17.12C21.0193 19.1768 22.0241 21.3472 22.81 23.6L25.9 24.71C26.1333 24.8106 26.3195 24.9961 26.421 25.229C26.5224 25.4619 26.5314 25.7247 26.4461 25.964C26.3608 26.2033 26.1877 26.4012 25.9618 26.5174C25.7359 26.6337 25.4743 26.6596 25.23 26.59L23.58 26C24.2185 28.2882 24.6371 30.6322 24.83 33L27.54 34.88C27.7425 35.037 27.877 35.2657 27.9158 35.519C27.9546 35.7722 27.8947 36.0307 27.7484 36.2411C27.6022 36.4515 27.3808 36.5977 27.1299 36.6496C26.879 36.7015 26.6177 36.6551 26.4 36.52L25 35.5C25.0358 37.8935 24.8382 40.2848 24.41 42.64L26.53 45.15C26.7011 45.3529 26.7845 45.6154 26.762 45.8799C26.7395 46.1443 26.6129 46.3889 26.41 46.56C26.2071 46.7311 25.9446 46.8145 25.6801 46.792C25.4157 46.7695 25.1711 46.6429 25 46.44L23.86 45.09C23.2699 47.4035 22.456 49.6541 21.43 51.81L22.84 54.81C22.9469 55.0492 22.9557 55.3207 22.8644 55.5663C22.7732 55.8119 22.5893 56.0119 22.3521 56.1232C22.115 56.2346 21.8436 56.2484 21.5964 56.1618C21.3491 56.0752 21.1458 55.895 21.03 55.66L20.28 54C19.1113 56.0829 17.745 58.0487 16.2 59.87L16.79 63.14C16.8368 63.3998 16.7789 63.6675 16.629 63.8848C16.4792 64.1021 16.2495 64.2514 15.99 64.3H15.81C15.5732 64.3039 15.3427 64.2236 15.1596 64.0734C14.9765 63.9232 14.8526 63.713 14.81 63.48L14.49 61.72C14.0767 62.1467 13.6533 62.5633 13.22 62.97C19.7902 68.7442 28.238 71.9288 36.985 71.9288C45.732 71.9288 54.1798 68.7442 60.75 62.97C60.3167 62.5633 59.8933 62.1467 59.48 61.72L59.17 63.54Z" fill="white"/>
<path d="M14.83 63.54C14.8726 63.773 14.9965 63.9832 15.1796 64.1334C15.3627 64.2836 15.5932 64.3639 15.83 64.36H16.01C16.2695 64.3114 16.4992 64.1621 16.649 63.9448C16.7989 63.7275 16.8568 63.4598 16.81 63.2L16.22 59.93C17.7613 58.0888 19.121 56.1029 20.28 54L21 55.66C21.0542 55.7813 21.1321 55.8906 21.2291 55.9815C21.326 56.0724 21.4401 56.143 21.5647 56.1893C21.6893 56.2356 21.8218 56.2566 21.9546 56.2511C22.0874 56.2455 22.2177 56.2136 22.338 56.1571C22.4583 56.1006 22.5662 56.0207 22.6552 55.9221C22.7443 55.8234 22.8128 55.708 22.8567 55.5826C22.9007 55.4572 22.9192 55.3242 22.9111 55.1916C22.9031 55.0589 22.8687 54.9292 22.81 54.81L21.4 51.81C22.426 49.6541 23.2399 47.4035 23.83 45.09L25 46.44C25.1711 46.6429 25.4157 46.7695 25.6802 46.792C25.9446 46.8145 26.2071 46.7311 26.41 46.56C26.6129 46.3889 26.7395 46.1443 26.762 45.8798C26.7845 45.6154 26.7011 45.3529 26.53 45.15L24.4 42.64C24.8315 40.2851 25.0325 37.8938 25 35.5L26.45 36.5C26.6677 36.6351 26.929 36.6815 27.1799 36.6296C27.4308 36.5777 27.6522 36.4315 27.7985 36.2211C27.9447 36.0107 28.0046 35.7522 27.9658 35.499C27.927 35.2457 27.7925 35.017 27.59 34.86L24.87 33C24.6771 30.6322 24.2585 28.2882 23.62 26L25.27 26.59C25.5143 26.6596 25.776 26.6337 26.0018 26.5174C26.2277 26.4012 26.4008 26.2033 26.4861 25.964C26.5714 25.7247 26.5624 25.4619 26.461 25.229C26.3596 24.9961 26.1733 24.8106 25.94 24.71L22.85 23.6C22.0641 21.3472 21.0593 19.1768 19.85 17.12L21.59 17.26C21.8538 17.2822 22.1157 17.1988 22.3181 17.0282C22.5206 16.8577 22.6471 16.6137 22.67 16.35C22.6809 16.2186 22.6658 16.0863 22.6254 15.9608C22.585 15.8353 22.5202 15.719 22.4347 15.6186C22.3492 15.5182 22.2447 15.4357 22.1272 15.3759C22.0097 15.3161 21.8815 15.2801 21.75 15.27L18.45 15C17.0837 13.031 15.5298 11.1991 13.81 9.53L15.54 9.21C15.7995 9.16138 16.0292 9.01214 16.179 8.79484C16.3289 8.57754 16.3868 8.30979 16.34 8.05C16.2933 7.82072 16.1676 7.6151 15.9849 7.46893C15.8022 7.32275 15.574 7.24528 15.34 7.25C13.4105 8.70531 11.6317 10.3502 10.03 12.16V12.16C9.97342 12.4185 10.0216 12.689 10.1641 12.912C10.3066 13.1351 10.5316 13.2926 10.79 13.35H11C11.2326 13.3552 11.4596 13.2791 11.6422 13.1349C11.8247 12.9907 11.9512 12.7874 12 12.56L12.37 10.89C14.0129 12.4782 15.4966 14.2232 16.8 16.1L15.48 18.66C15.358 18.896 15.3348 19.1709 15.4154 19.4241C15.4961 19.6772 15.674 19.888 15.91 20.01C16.1461 20.132 16.4209 20.1552 16.6741 20.0746C16.9272 19.9939 17.138 19.816 17.26 19.58L18.05 18.05C19.2369 20.0135 20.2251 22.0905 21 24.25L19 26.37C18.9114 26.4672 18.8427 26.5809 18.798 26.7046C18.7533 26.8283 18.7334 26.9596 18.7395 27.091C18.7455 27.2224 18.7773 27.3513 18.8332 27.4704C18.8891 27.5894 18.9678 27.6964 19.065 27.785C19.1622 27.8736 19.2759 27.9423 19.3996 27.987C19.5233 28.0317 19.6546 28.0516 19.786 28.0456C19.9174 28.0395 20.0463 28.0077 20.1654 27.9518C20.2845 27.8959 20.3914 27.8172 20.48 27.72L21.64 26.45C22.2575 28.6525 22.6594 30.9097 22.84 33.19L20.43 34.73C20.3121 34.7973 20.2091 34.8879 20.1273 34.9962C20.0455 35.1046 19.9866 35.2285 19.9543 35.3604C19.9219 35.4923 19.9168 35.6293 19.9391 35.7633C19.9615 35.8972 20.0109 36.0252 20.0843 36.1394C20.1577 36.2536 20.2537 36.3516 20.3662 36.4276C20.4788 36.5035 20.6056 36.5557 20.739 36.5811C20.8724 36.6064 21.0096 36.6043 21.1421 36.5749C21.2747 36.5455 21.3998 36.4894 21.51 36.41L23 35.49C23.0375 37.7762 22.85 40.0605 22.44 42.31L19.7 43.18C19.4467 43.2609 19.236 43.4391 19.1141 43.6754C18.9922 43.9117 18.9691 44.1867 19.05 44.44C19.1309 44.6933 19.3091 44.9041 19.5454 45.026C19.7817 45.1479 20.0567 45.1709 20.31 45.09L21.94 44.57C21.373 46.785 20.5892 48.9387 19.6 51L16.75 51.13C16.4848 51.1419 16.2352 51.2587 16.0561 51.4547C15.877 51.6507 15.7831 51.9098 15.795 52.175C15.8069 52.4402 15.9237 52.6898 16.1197 52.8689C16.3157 53.048 16.5748 53.1419 16.84 53.13L18.53 53.05C17.4116 55.0423 16.1021 56.9212 14.62 58.66L11.84 58.05C11.5748 57.993 11.2978 58.0436 11.0699 58.1909C10.8421 58.3381 10.682 58.5698 10.625 58.835C10.568 59.1002 10.6187 59.3772 10.7659 59.6051C10.9131 59.8329 11.1448 59.993 11.41 60.05L13.06 60.41C12.63 60.85 12.19 61.28 11.74 61.69C12.22 62.1567 12.71 62.61 13.21 63.05C13.6433 62.6433 14.0667 62.2267 14.48 61.8L14.83 63.54Z" fill="#F2432C"/>
<path d="M60.92 60.38L62.57 60C62.8352 59.943 63.0669 59.7829 63.2141 59.5551C63.3614 59.3272 63.412 59.0502 63.355 58.785C63.298 58.5198 63.1379 58.2881 62.9101 58.1409C62.6822 57.9936 62.4052 57.943 62.14 58L59.36 58.61C57.8779 56.8712 56.5684 54.9923 55.45 53L57.14 53.08C57.4052 53.08 57.6596 52.9746 57.8471 52.7871C58.0346 52.5996 58.14 52.3452 58.14 52.08C58.14 51.8148 58.0346 51.5604 57.8471 51.3729C57.6596 51.1854 57.4052 51.08 57.14 51.08L54.4 51C53.4136 48.9351 52.6332 46.778 52.07 44.56L53.7 45.08C53.8254 45.1201 53.9575 45.135 54.0887 45.124C54.2199 45.113 54.3476 45.0763 54.4646 45.016C54.5816 44.9556 54.6856 44.8728 54.7706 44.7722C54.8556 44.6717 54.9199 44.5554 54.96 44.43C55.0001 44.3046 55.015 44.1725 55.004 44.0413C54.993 43.9101 54.9563 43.7824 54.896 43.6654C54.8356 43.5484 54.7528 43.4444 54.6522 43.3594C54.5517 43.2744 54.4354 43.2101 54.31 43.17L51.57 42.3C51.1574 40.0542 50.9664 37.7732 51 35.49L52.44 36.41C52.6624 36.5369 52.925 36.5736 53.1737 36.5126C53.4224 36.4516 53.6382 36.2975 53.7767 36.0821C53.9151 35.8668 53.9657 35.6065 53.9179 35.3549C53.8702 35.1033 53.7278 34.8797 53.52 34.73L51.11 33.19C51.2906 30.9098 51.6925 28.6525 52.31 26.45L53.47 27.72C53.5586 27.8205 53.6662 27.9025 53.7865 27.9614C53.9069 28.0203 54.0376 28.0549 54.1714 28.0632C54.3051 28.0716 54.4391 28.0535 54.5659 28.0101C54.6926 27.9666 54.8095 27.8986 54.91 27.81C55.0105 27.7214 55.0925 27.6138 55.1514 27.4935C55.2103 27.3731 55.2449 27.2424 55.2532 27.1086C55.2616 26.9749 55.2435 26.8409 55.2001 26.7141C55.1566 26.5874 55.0886 26.4705 55 26.37L53 24.25C53.7659 22.0951 54.7441 20.0215 55.92 18.06L56.71 19.59C56.7704 19.7069 56.8532 19.8107 56.9538 19.8956C57.0543 19.9804 57.1706 20.0447 57.2959 20.0846C57.4213 20.1245 57.5533 20.1394 57.6844 20.1283C57.8155 20.1172 57.9431 20.0804 58.06 20.02C58.1769 19.9596 58.2807 19.8768 58.3656 19.7762C58.4504 19.6757 58.5147 19.5594 58.5546 19.4341C58.5945 19.3087 58.6094 19.1767 58.5983 19.0456C58.5872 18.9145 58.5504 18.7869 58.49 18.67L57.17 16.11C58.4734 14.2332 59.9571 12.4882 61.6 10.9L62 12.57C62.0488 12.7974 62.1753 13.0007 62.3579 13.1449C62.5404 13.2891 62.7675 13.3652 63 13.36H63.21C63.4684 13.3026 63.6934 13.1451 63.8359 12.9221C63.9784 12.699 64.0266 12.4286 63.97 12.17C62.3683 10.3602 60.5895 8.71531 58.66 7.26C58.4261 7.25528 58.1979 7.33275 58.0151 7.47893C57.8324 7.6251 57.7068 7.83073 57.66 8.06C57.6133 8.3198 57.6711 8.58754 57.821 8.80485C57.9708 9.02215 58.2005 9.17138 58.46 9.22L60.19 9.54C58.4707 11.2059 56.9168 13.0345 55.55 15L52.29 15.27C52.0248 15.2912 51.7789 15.4169 51.6063 15.6195C51.4338 15.822 51.3488 16.0848 51.37 16.35C51.3912 16.6152 51.5169 16.8611 51.7195 17.0337C51.922 17.2062 52.1848 17.2912 52.45 17.27L54.19 17.13C52.9807 19.1868 51.9759 21.3572 51.19 23.61L48.1 24.72C47.8667 24.8206 47.6805 25.0061 47.579 25.239C47.4776 25.4719 47.4686 25.7347 47.5539 25.974C47.6392 26.2133 47.8123 26.4112 48.0382 26.5274C48.2641 26.6437 48.5257 26.6696 48.77 26.6L50.42 26.01C49.7815 28.2982 49.3629 30.6422 49.17 33.01L46.46 34.89C46.2575 35.047 46.123 35.2757 46.0842 35.529C46.0454 35.7822 46.1053 36.0407 46.2516 36.2511C46.3978 36.4615 46.6192 36.6077 46.8701 36.6596C47.121 36.7115 47.3823 36.6651 47.6 36.53L49.05 35.53C49.0142 37.9235 49.2118 40.3148 49.64 42.67L47.52 45.18C47.4189 45.3802 47.3881 45.6085 47.4325 45.8283C47.4768 46.0482 47.5937 46.2467 47.7645 46.3921C47.9352 46.5374 48.1499 46.6212 48.3739 46.6299C48.598 46.6386 48.8185 46.5717 49 46.44L50.14 45.09C50.7301 47.4035 51.544 49.6541 52.57 51.81L51.16 54.81C51.0531 55.0492 51.0443 55.3207 51.1356 55.5663C51.2268 55.8119 51.4107 56.0119 51.6479 56.1232C51.885 56.2346 52.1564 56.2484 52.4036 56.1618C52.6509 56.0752 52.8542 55.895 52.97 55.66L53.72 54C54.8887 56.0829 56.255 58.0487 57.8 59.87L57.21 63.14C57.1632 63.3998 57.2211 63.6675 57.371 63.8848C57.5208 64.1021 57.7505 64.2514 58.01 64.3H58.19C58.4268 64.3039 58.6573 64.2236 58.8404 64.0734C59.0235 63.9232 59.1474 63.713 59.19 63.48L59.51 61.72C59.9233 62.1467 60.3467 62.5633 60.78 62.97C61.28 62.53 61.77 62.0767 62.25 61.61C61.79 61.25 61.35 60.82 60.92 60.38Z" fill="#F2432C"/>
<path style="mix-blend-mode:multiply" opacity="0.24" d="M29 64C21.4043 64.0119 14.0014 61.6096 7.86 57.14C8.72094 58.3219 9.65264 59.4507 10.65 60.52C17.487 66.7963 26.4837 70.1896 35.7625 69.9918C45.0413 69.794 53.8853 66.0203 60.4485 59.4583C67.0118 52.8963 70.7872 44.0532 70.9869 34.7744C71.1865 25.4956 67.7949 16.4982 61.52 9.66C60.4507 8.66264 59.3219 7.73093 58.14 6.87C62.0347 12.2423 64.3687 18.5864 64.8845 25.2018C65.4003 31.8172 64.0776 38.4464 61.0627 44.3574C58.0477 50.2683 53.4577 55.231 47.7996 58.6974C42.1415 62.1637 35.6355 63.9988 29 64V64Z" fill="url(#paint0_linear)"/>
<defs>
<linearGradient id="paint0_linear" x1="60.46" y1="59.46" x2="33" y2="32" gradientUnits="userSpaceOnUse">
<stop stop-color="#F2432C"/>
<stop offset="1" stop-color="#F2432C" stop-opacity="0"/>
</linearGradient>
</defs>
</svg>
